<svg width="1280" height="640" viewBox="0 0 1280 640" fill="none" xmlns="http://www.w3.org/2000/svg">
  <defs>
    <linearGradient id="bg" x1="80" y1="48" x2="1190" y2="602" gradientUnits="userSpaceOnUse">
      <stop stop-color="#0F172A"/>
      <stop offset="1" stop-color="#0F766E"/>
    </linearGradient>
    <linearGradient id="accent" x1="736" y1="180" x2="1136" y2="420" gradientUnits="userSpaceOnUse">
      <stop stop-color="#38BDF8"/>
      <stop offset="1" stop-color="#2DD4BF"/>
    </linearGradient>
  </defs>
  <rect x="24" y="24" width="1232" height="592" rx="40" fill="url(#bg)"/>
  <rect x="88" y="88" width="120" height="120" rx="28" fill="#111827" stroke="#334155" stroke-width="2"/>
  <path d="M130 116C130 107.163 137.163 100 146 100H191.373C195.617 100 199.687 101.686 202.686 104.686L239.314 141.314C242.314 144.313 244 148.383 244 152.627V230C244 238.837 236.837 246 228 246H146C137.163 246 130 238.837 130 230V116Z" stroke="white" stroke-width="8" stroke-linejoin="round"/>
  <path d="M196 102V144C196 149.523 200.477 154 206 154H248" stroke="white" stroke-width="8" stroke-linecap="round" stroke-linejoin="round"/>
  <path d="M155 174H183" stroke="white" stroke-width="7" stroke-linecap="round"/>
  <path d="M155 198H178" stroke="white" stroke-width="7" stroke-linecap="round" opacity="0.9"/>
  <path d="M179 231L205 206L229 221L255 194" stroke="url(#accent)" stroke-width="10" stroke-linecap="round" stroke-linejoin="round"/>
  <circle cx="179" cy="231" r="8" fill="#38BDF8"/>
  <circle cx="205" cy="206" r="8" fill="#67E8F9"/>
  <circle cx="229" cy="221" r="8" fill="#5EEAD4"/>
  <circle cx="255" cy="194" r="8" fill="#2DD4BF"/>
  <text x="88" y="300" fill="#E2E8F0" font-family="Inter, Arial, sans-serif" font-size="20" font-weight="600">Open-source newsroom workflow system</text>
  <text x="88" y="388" fill="white" font-family="Inter, Arial, sans-serif" font-size="72" font-weight="700">NewsFlow</text>
  <text x="88" y="454" fill="#CBD5E1" font-family="Inter, Arial, sans-serif" font-size="28" font-weight="500">Event tracking, evidence organization, approval chains,</text>
  <text x="88" y="494" fill="#CBD5E1" font-family="Inter, Arial, sans-serif" font-size="28" font-weight="500">correction handling, and post-publication monitoring.</text>
  <rect x="742" y="120" width="420" height="340" rx="28" fill="#0B1120" stroke="#1E293B" stroke-width="2"/>
  <rect x="780" y="164" width="220" height="26" rx="13" fill="#1E293B"/>
  <rect x="780" y="214" width="320" height="16" rx="8" fill="#334155"/>
  <rect x="780" y="244" width="280" height="16" rx="8" fill="#334155"/>
  <rect x="780" y="304" width="110" height="36" rx="18" fill="#0EA5E9" fill-opacity="0.18"/>
  <rect x="904" y="304" width="126" height="36" rx="18" fill="#14B8A6" fill-opacity="0.18"/>
  <rect x="1046" y="304" width="76" height="36" rx="18" fill="#EAB308" fill-opacity="0.18"/>
  <path d="M812 392L882 330L950 364L1032 276L1094 314" stroke="url(#accent)" stroke-width="14" stroke-linecap="round" stroke-linejoin="round"/>
  <circle cx="812" cy="392" r="12" fill="#38BDF8"/>
  <circle cx="882" cy="330" r="12" fill="#67E8F9"/>
  <circle cx="950" cy="364" r="12" fill="#5EEAD4"/>
  <circle cx="1032" cy="276" r="12" fill="#2DD4BF"/>
  <circle cx="1094" cy="314" r="12" fill="#99F6E4"/>
  <text x="742" y="548" fill="#94A3B8" font-family="Inter, Arial, sans-serif" font-size="22" font-weight="500">Human-in-the-loop editorial workflow, not just AI writing.</text>
</svg>
